   <svg
        xmlns="http://www.w3.org/2000/svg"
        viewBox="0 0 24 24"
        width="24"
        height="24"
        fill="blackColor"
      >
        <path d="M12 .297c-6.63 0-12 5.373-12 12 0 5.302 3.438 9.8 8.205 11.387.6.113.82-.258.82-.577v-2.234c-3.338.724-4.033-1.416-4.033-1.416-.546-1.387-1.333-1.757-1.333-1.757-1.086-.744.083-.729.083-.729 1.205.084 1.84 1.234 1.84 1.234 1.07 1.834 2.809 1.304 3.495.997.108-.775.418-1.305.762-1.605-2.665-.305-5.466-1.334-5.466-5.932 0-1.31.467-2.382 1.235-3.221-.123-.303-.535-1.524.117-3.176 0 0 1.007-.322 3.3 1.23.96-.267 1.98-.399 3-.405 1.02.006 2.04.138 3 .405 2.292-1.552 3.3-1.23 3.3-1.23.653 1.653.241 2.873.118 3.176.77.839 1.235 1.911 1.235 3.221 0 4.61-2.807 5.624-5.479 5.921.43.37.823 1.102.823 2.222v3.293c0 .322.219.694.825.576C20.565 22.092 24 17.593 24 12.297c0-6.627-5.373-12-12-12z" />
      </svg>